<svg xmlns="http://www.w3.org/2000/svg" xmlns:xlink="http://www.w3.org/1999/xlink" version="1.1" width="360" height="216" viewBox="0 0 360 216">
<defs>
<clipPath id="clip_0">
<path transform="matrix(1,0,0,-1,0,216)" d="M0 216H360V0H0Z"/>
</clipPath>
</defs>
<g id="layer_1" data-name="Layer 1">
<text fill="#132c3f" xml:space="preserve" transform="matrix(1 0 -0 1 0 216)" font-size="42.188" font-family="TrajanPro" font-weight="bold"><tspan y="-29.8057" x="13.6162 26.272603 60.023004 83.310779 107.61107 134.27388 163.21485 175.87125 205.69817 234.63913 251.80965 286.86787 319.90107"> Clear Bridge</tspan></text>
<g clip-path="url(#clip_0)">
<path transform="matrix(1,0,0,-1,190.2851,96.9165)" d="M0 0C-8.259 .022-15.671-.235-23.079-.621-26.907-.82-30.739-1.008-34.557-1.339-40.284-1.835-46.007-2.395-51.719-3.035-56.28-3.545-60.823-4.223-65.376-4.808-66.092-4.9-66.406-5.132-66.391-5.956-66.332-9.215-66.338-12.476-66.385-15.735-66.398-16.669-66.15-16.8-65.266-16.587-62.807-15.995-60.326-15.487-57.844-15-45.316-12.544-32.706-10.667-19.989-9.474-12.18-8.74-4.357-8.301 3.474-8.083 10.195-7.896 16.924-7.846 23.654-8.19 27.005-8.362 30.362-8.462 33.716-8.609 38.997-8.84 44.255-9.293 49.507-9.821 57.996-10.673 66.448-11.84 74.85-13.337 75.483-13.45 75.695-13.349 75.681-12.685 75.649-11.093 75.639-9.497 75.687-7.905 75.705-7.284 75.389-7.043 74.901-6.952 73.179-6.628 71.457-6.301 69.725-6.04 65.806-5.451 61.892-4.821 57.969-4.25 53.729-3.632 49.479-3.109 45.228-2.591 41.539-2.141 37.833-1.807 34.128-1.502 30.018-1.163 25.903-.85 21.784-.646 18.405-.479 15.024-.344 11.644-.22 7.487-.067 3.325 .103 0 0M75.818 42.732C76.176 39.177 76.536 35.622 76.892 32.066 77.446 26.525 78 20.984 78.55 15.442 79.017 10.727 79.478 6.012 79.942 1.297 80.158-.899 80.411-3.091 80.571-5.291 80.626-6.036 81.113-6.036 81.587-6.155 88.464-7.876 95.291-9.777 102.051-11.913 104.982-12.839 107.899-13.81 110.82-14.768 111.226-14.901 111.619-15.076 111.989-15.332 101.714-12.61 91.393-10.113 80.835-8.07 81.052-10.14 81.255-12.141 81.476-14.141 81.546-14.777 82.145-14.619 82.505-14.698 86.672-15.606 90.86-16.417 95.017-17.367 110.331-20.866 125.374-25.302 140.172-30.568 140.435-30.661 140.75-30.663 141.045-31.136 139.413-30.717 137.942-30.337 136.47-29.963 122.902-26.518 109.21-23.656 95.407-21.33 91.201-20.622 86.972-20.051 82.757-19.393 82.136-19.297 81.964-19.351 82.036-20.077 82.687-26.591 83.269-33.111 83.919-39.625 83.993-40.356 83.791-40.545 83.126-40.682 80.967-41.127 78.815-41.612 76.679-42.157 75.851-42.369 75.645-42.213 75.652-41.343 75.691-36.054 75.671-30.765 75.671-25.476 75.671-23.447 75.647-21.418 75.685-19.39 75.697-18.717 75.517-18.472 74.805-18.387 69.202-17.716 63.589-17.156 57.968-16.657 50.255-15.973 42.529-15.524 34.795-15.218 25.384-14.844 15.965-14.806 6.553-15.028-3.175-15.258-12.89-15.794-22.59-16.632-31.348-17.388-40.082-18.348-48.786-19.571-54.333-20.351-59.857-21.303-65.393-22.161-66.115-22.272-66.394-22.545-66.389-23.345-66.35-29.757-66.386-36.169-66.346-42.581-66.34-43.502-66.617-43.736-67.503-43.714-69.856-43.656-72.212-43.672-74.567-43.708-75.256-43.718-75.532-43.554-75.473-42.808-75.124-38.409-74.81-34.007-74.487-29.606-74.368-27.983-74.282-26.357-74.128-24.737-74.054-23.961-74.297-23.815-75.036-23.961-82.694-25.479-90.324-27.125-97.914-28.958-110.853-32.082-123.641-35.74-136.314-39.805-136.48-39.858-136.646-39.911-136.888-39.781-135.374-39.133-133.866-38.469-132.343-37.842-113.59-30.121-94.417-23.669-74.719-18.811-73.945-18.62-73.687-18.302-73.636-17.521-73.407-14.021-73.117-10.524-72.83-7.027-72.771-6.318-72.811-6.014-73.73-6.165-87.009-8.344-100.155-11.148-113.214-14.378-113.482-14.444-113.738-14.596-114.223-14.389-110.784-13.329-107.52-12.283-104.233-11.317-94.135-8.351-83.951-5.714-73.633-3.623-72.828-3.46-72.5-3.113-72.448-2.292-72.172 2.04-71.861 6.37-71.544 10.699-71.062 17.3-70.558 23.899-70.077 30.5-69.685 35.876-69.323 41.253-68.931 46.629-68.453 53.194-67.954 59.757-67.47 66.322-67.231 69.569-67.01 72.817-66.775 76.064-66.681 77.36-66.572 78.655-66.367 79.948V78.155C-66.367 51.962-66.367 25.77-66.367-.423-66.367-2.105-66.37-2.086-64.754-1.796-56.781-.366-48.782 .883-40.729 1.791-32.278 2.745-23.812 3.433-15.313 3.776-8.8 4.039-2.287 4.201 4.227 4.073 11.424 3.931 18.618 3.621 25.794 3.024 42.178 1.662 58.396-.791 74.42-4.492 75.669-4.781 75.671-4.784 75.671-3.558 75.671 11.875 75.671 27.308 75.671 42.741 75.72 42.738 75.769 42.735 75.818 42.732" fill="#508ec3"/>
<path transform="matrix(1,0,0,-1,134.9173,24.841294)" d="M0 0C.797-.576 1.274-1.381 1.853-2.079 10.611-12.65 20.131-22.44 31.196-30.636 41.237-38.073 52.094-43.848 64.36-46.694 68.703-47.701 73.1-48.273 77.563-48.434 89.986-48.883 101.633-45.897 112.788-40.644 115.311-39.456 117.764-38.141 120.178-36.749 120.415-36.612 120.639-36.412 121.198-36.5 120.06-37.235 119.105-37.866 118.135-38.475 109.414-43.95 100.223-48.357 90.164-50.802 75.614-54.338 61.533-53.043 47.931-46.743 40.045-43.091 33.034-38.138 26.588-32.353 16.301-23.121 7.849-12.354 .279-.852 .131-.627-.144-.437 0 0" fill="#508ec3"/>
<path transform="matrix(1,0,0,-1,116.6247,24.086197)" d="M0 0C-.816-2.852-1.785-5.642-2.821-8.409-8.724-24.178-17.459-38.148-29.242-50.214-38.187-59.372-48.322-66.946-59.403-73.297-67.895-78.165-76.766-82.225-85.93-85.655-86.225-85.765-86.524-85.863-86.919-85.777-86.106-85.317-85.298-84.848-84.479-84.398-71.741-77.391-59.523-69.584-48.081-60.601-33.488-49.144-20.573-36.111-10.56-20.379-6.49-13.985-3.019-7.281-.269-.212-.232-.117-.246 .021 0 0" fill="#508ec3"/>
<path transform="matrix(1,0,0,-1,272.4351,57.521104)" d="M0 0C1.153-2.287 2.284-4.586 3.464-6.859 8.757-17.05 15.299-26.343 23.48-34.432 33.708-44.544 45.673-51.894 59.205-56.722 62.736-57.982 66.329-59.038 69.949-60.016 65.398-59.348 60.939-58.292 56.534-56.999 46.053-53.922 36.329-49.323 27.668-42.599 16.001-33.541 7.954-21.839 2.605-8.185 1.709-5.898 .966-3.55 .17-1.225 .043-.855 .004-.454-.075-.067Z" fill="#508ec3"/>
</g>
</g>
</svg>
